<svg width="40" height="34" viewBox="0 0 40 34" fill="none" xmlns="http://www.w3.org/2000/svg">
<g clip-path="url(#clip0_3989_8333)">
<path d="M18.0945 33.3315C14.8636 33.3315 11.7052 32.3734 9.01885 30.5784C6.33247 28.7834 4.23868 26.2322 3.00227 23.2472C1.76587 20.2623 1.44237 16.9777 2.07268 13.8089C2.703 10.6401 4.25882 7.72935 6.5434 5.44477C8.82798 3.16019 11.7387 1.60436 14.9075 0.974049C18.0763 0.343734 21.3609 0.667234 24.3458 1.90364C27.3308 3.14005 29.8821 5.23383 31.6771 7.92022C33.472 10.6066 34.4301 13.7649 34.4301 16.9958C34.4253 21.3268 32.7027 25.4791 29.6402 28.5416C26.5777 31.6041 22.4255 33.3267 18.0945 33.3315Z" fill="#034833"/>
<path d="M18.094 32.3364C21.1279 32.3364 24.0938 31.4367 26.6164 29.7511C29.1391 28.0655 31.1053 25.6697 32.2663 22.8667C33.4274 20.0637 33.7312 16.9793 33.1393 14.0036C32.5474 11.0279 31.0864 8.2946 28.941 6.14926C26.7957 4.00391 24.0623 2.54291 21.0867 1.95101C18.111 1.35911 15.0266 1.6629 12.2236 2.82395C9.42055 3.985 7.02476 5.95118 5.33917 8.47384C3.65358 10.9965 2.75391 13.9623 2.75391 16.9963C2.7587 21.0633 4.37642 24.9623 7.2522 27.8381C10.128 30.7139 14.027 32.3316 18.094 32.3364Z" fill="white"/>
<path d="M38.2725 11.2033C38.0139 11.1076 37.326 10.2956 34.2358 10.5542C33.2014 10.6421 30.2042 11.5886 26.4157 12.7704L17.5458 9.19141L14.8719 9.47586L22.0015 14.1487C19.5318 14.909 16.9329 15.6822 14.4271 16.3546L9.21119 12.7342L7.76562 13.1273L12.1825 18.7699L10.9076 21.4128L12.7566 21.193L13.9823 19.4216C17.4592 19.3106 20.9201 18.8996 24.3263 18.1932L22.5937 25.1754L24.784 24.2341L28.1768 17.3579C38.8647 14.803 39.7853 12.848 39.987 12.3023C40.2042 11.6817 38.5337 11.3016 38.2725 11.2033Z" fill="#034833"/>
<path d="M4.25098 27.9883L22.0063 24.7558L22.3425 22.8086L4.25098 27.9883Z" fill="#034833"/>
<path d="M2.22656 25.2575L22.692 21.1794L23.1058 19.1055L2.22656 25.2575Z" fill="#034833"/>
<path d="M10.548 20.5893L1.02637 22.5495L11.1453 19.4023L10.548 20.5893Z" fill="#034833"/>
<path d="M10.6082 17.7755L0.4375 20.0589L9.8841 16.9531L10.6082 17.7755Z" fill="#034833"/>
<path d="M9.04577 15.4812L0 17.5707L8.3217 14.6562L9.04577 15.4812Z" fill="#034833"/>
</g>
<defs>
<clipPath id="clip0_3989_8333">
<rect width="40" height="32.6713" fill="white" transform="translate(0 0.664062)"/>
</clipPath>
</defs>
</svg>
