<svg width="157" height="40" viewBox="0 0 157 40" fill="none" xmlns="http://www.w3.org/2000/svg">
<g clip-path="url(#clip0_3984_124)">
<path d="M18.0945 36.3315C14.8636 36.3315 11.7052 35.3734 9.01885 33.5784C6.33247 31.7834 4.23868 29.2322 3.00227 26.2472C1.76587 23.2623 1.44237 19.9777 2.07268 16.8089C2.703 13.6401 4.25882 10.7294 6.5434 8.44477C8.82798 6.16019 11.7387 4.60436 14.9075 3.97405C18.0763 3.34373 21.3609 3.66723 24.3458 4.90364C27.3308 6.14005 29.8821 8.23383 31.6771 10.9202C33.472 13.6066 34.4301 16.7649 34.4301 19.9958C34.4253 24.3268 32.7027 28.4791 29.6402 31.5416C26.5777 34.6041 22.4255 36.3267 18.0945 36.3315Z" fill="#83CD20"/>
<path d="M18.094 35.3364C21.1279 35.3364 24.0938 34.4367 26.6164 32.7511C29.1391 31.0655 31.1053 28.6697 32.2663 25.8667C33.4274 23.0637 33.7312 19.9793 33.1393 17.0036C32.5474 14.0279 31.0864 11.2946 28.941 9.14926C26.7957 7.00391 24.0623 5.54291 21.0867 4.95101C18.111 4.35911 15.0266 4.6629 12.2236 5.82395C9.42055 6.985 7.02476 8.95118 5.33917 11.4738C3.65358 13.9965 2.75391 16.9623 2.75391 19.9963C2.7587 24.0633 4.37642 27.9623 7.2522 30.8381C10.128 33.7139 14.027 35.3316 18.094 35.3364Z" fill="white"/>
<path d="M38.2725 14.2033C38.0139 14.1076 37.326 13.2956 34.2358 13.5542C33.2014 13.6421 30.2042 14.5886 26.4157 15.7704L17.5458 12.1914L14.8719 12.4759L22.0015 17.1487C19.5318 17.909 16.9329 18.6822 14.4271 19.3546L9.21119 15.7342L7.76562 16.1273L12.1825 21.7699L10.9076 24.4128L12.7566 24.193L13.9823 22.4216C17.4592 22.3106 20.9201 21.8996 24.3263 21.1932L22.5937 28.1754L24.784 27.2341L28.1768 20.3579C38.8647 17.803 39.7853 15.848 39.987 15.3023C40.2042 14.6817 38.5337 14.3016 38.2725 14.2033Z" fill="#83CD20"/>
<path d="M4.25098 30.9883L22.0063 27.7558L22.3425 25.8086L4.25098 30.9883Z" fill="#83CD20"/>
<path d="M2.22656 28.2575L22.692 24.1794L23.1058 22.1055L2.22656 28.2575Z" fill="#83CD20"/>
<path d="M10.548 23.5893L1.02637 25.5495L11.1453 22.4023L10.548 23.5893Z" fill="#83CD20"/>
<path d="M10.6082 20.7755L0.4375 23.0589L9.8841 19.9531L10.6082 20.7755Z" fill="#83CD20"/>
<path d="M9.04577 18.4812L0 20.5707L8.3217 17.6562L9.04577 18.4812Z" fill="#83CD20"/>
</g>
<path d="M52.304 33V9.16H61.168C62.7893 9.16 64.2187 9.45867 65.456 10.056C66.7147 10.632 67.696 11.4853 68.4 12.616C69.104 13.7253 69.456 15.08 69.456 16.68C69.456 18.3227 69.0613 19.72 68.272 20.872C67.504 22.024 66.4587 22.8773 65.136 23.432L70.608 33H65.68L59.824 22.536L62.64 24.2H56.656V33H52.304ZM56.656 20.36H61.232C62.0213 20.36 62.704 20.2107 63.28 19.912C63.856 19.592 64.304 19.1547 64.624 18.6C64.944 18.0453 65.104 17.4053 65.104 16.68C65.104 15.9333 64.944 15.2933 64.624 14.76C64.304 14.2053 63.856 13.7787 63.28 13.48C62.704 13.16 62.0213 13 61.232 13H56.656V20.36ZM79.2115 33.384C77.5048 33.384 75.9475 32.9893 74.5395 32.2C73.1528 31.4107 72.0435 30.3333 71.2115 28.968C70.4008 27.6027 69.9955 26.0453 69.9955 24.296C69.9955 22.5467 70.4008 20.9893 71.2115 19.624C72.0435 18.2587 73.1528 17.1813 74.5395 16.392C75.9262 15.6027 77.4835 15.208 79.2115 15.208C80.9182 15.208 82.4648 15.6027 83.8515 16.392C85.2382 17.1813 86.3368 18.2587 87.1475 19.624C87.9795 20.968 88.3955 22.5253 88.3955 24.296C88.3955 26.0453 87.9795 27.6027 87.1475 28.968C86.3155 30.3333 85.2062 31.4107 83.8195 32.2C82.4328 32.9893 80.8968 33.384 79.2115 33.384ZM79.2115 29.544C80.1502 29.544 80.9715 29.32 81.6755 28.872C82.4008 28.424 82.9662 27.8053 83.3715 27.016C83.7982 26.2053 84.0115 25.2987 84.0115 24.296C84.0115 23.272 83.7982 22.376 83.3715 21.608C82.9662 20.8187 82.4008 20.2 81.6755 19.752C80.9715 19.2827 80.1502 19.048 79.2115 19.048C78.2515 19.048 77.4088 19.2827 76.6835 19.752C75.9582 20.2 75.3822 20.8187 74.9555 21.608C74.5502 22.376 74.3475 23.272 74.3475 24.296C74.3475 25.2987 74.5502 26.2053 74.9555 27.016C75.3822 27.8053 75.9582 28.424 76.6835 28.872C77.4088 29.32 78.2515 29.544 79.2115 29.544ZM96.3425 33.384C94.9985 33.384 93.8252 33.0853 92.8225 32.488C91.8412 31.8907 91.0838 31.0587 90.5505 29.992C90.0385 28.9253 89.7825 27.6773 89.7825 26.248V15.592H93.9745V25.896C93.9745 26.6213 94.1132 27.2613 94.3905 27.816C94.6892 28.3493 95.1052 28.776 95.6385 29.096C96.1932 29.3947 96.8118 29.544 97.4945 29.544C98.1772 29.544 98.7852 29.3947 99.3185 29.096C99.8518 28.776 100.268 28.3387 100.566 27.784C100.865 27.2293 101.014 26.568 101.014 25.8V15.592H105.206V33H101.238V29.576L101.59 30.184C101.185 31.2507 100.513 32.0507 99.5745 32.584C98.6572 33.1173 97.5798 33.384 96.3425 33.384ZM115.599 33.192C113.637 33.192 112.111 32.6587 111.023 31.592C109.957 30.504 109.423 28.9787 109.423 27.016V19.336H106.415V15.592H106.735C107.589 15.592 108.25 15.368 108.719 14.92C109.189 14.472 109.423 13.8213 109.423 12.968V11.624H113.615V15.592H117.615V19.336H113.615V26.792C113.615 27.368 113.711 27.8587 113.903 28.264C114.117 28.6693 114.437 28.9787 114.863 29.192C115.311 29.4053 115.877 29.512 116.559 29.512C116.709 29.512 116.879 29.5013 117.071 29.48C117.285 29.4587 117.487 29.4373 117.679 29.416V33C117.381 33.0427 117.039 33.0853 116.655 33.128C116.271 33.1707 115.919 33.192 115.599 33.192ZM127.542 33.384C125.75 33.384 124.182 32.9787 122.838 32.168C121.494 31.3573 120.448 30.2587 119.702 28.872C118.955 27.4853 118.582 25.9493 118.582 24.264C118.582 22.5147 118.955 20.968 119.702 19.624C120.47 18.2587 121.504 17.1813 122.806 16.392C124.128 15.6027 125.6 15.208 127.222 15.208C128.587 15.208 129.782 15.432 130.806 15.88C131.851 16.328 132.736 16.9467 133.462 17.736C134.187 18.5253 134.742 19.432 135.126 20.456C135.51 21.4587 135.702 22.5467 135.702 23.72C135.702 24.0187 135.68 24.328 135.638 24.648C135.616 24.968 135.563 25.2453 135.478 25.48H122.038V22.28H133.11L131.126 23.784C131.318 22.8027 131.264 21.928 130.966 21.16C130.688 20.392 130.219 19.784 129.558 19.336C128.918 18.888 128.139 18.664 127.222 18.664C126.347 18.664 125.568 18.888 124.886 19.336C124.203 19.7627 123.68 20.4027 123.318 21.256C122.976 22.088 122.848 23.1013 122.934 24.296C122.848 25.3627 122.987 26.312 123.35 27.144C123.734 27.9547 124.288 28.584 125.014 29.032C125.76 29.48 126.614 29.704 127.574 29.704C128.534 29.704 129.344 29.5013 130.006 29.096C130.688 28.6907 131.222 28.1467 131.606 27.464L134.998 29.128C134.656 29.96 134.123 30.696 133.398 31.336C132.672 31.976 131.808 32.4773 130.806 32.84C129.824 33.2027 128.736 33.384 127.542 33.384ZM135.84 33L143.648 21L135.904 9.16H140.896L147.232 18.856H144.928L151.232 9.16H156.224L148.512 21L156.288 33H151.296L144.928 23.176H147.232L140.832 33H135.84Z" fill="#034833"/>
<defs>
<clipPath id="clip0_3984_124">
<rect width="40" height="32.6713" fill="white" transform="translate(0 3.66406)"/>
</clipPath>
</defs>
</svg>
